/* XPM */
static const char *collectible_32x32[] = {
/* columns rows colors chars-per-pixel */
"32 32 127 2 ",
"   c #37281D",
".  c #3A2B1F",
"X  c #382920",
"o  c #3B3020",
"O  c #472B1C",
"+  c #52321D",
"@  c #5C3A1D",
"#  c #603B1B",
"$  c #423122",
"%  c #483626",
"&  c #473922",
"*  c #493C26",
"=  c #553E21",
"-  c #663421",
";  c #6A3621",
":  c #6D3821",
">  c #723A21",
",  c #7A3E21",
"<  c #5E411E",
"1  c #64451E",
"2  c #65491F",
"3  c #7C4A1C",
"4  c #4F422C",
"5  c #594322",
"6  c #654520",
"7  c #654D24",
"8  c #774122",
"9  c #7C4222",
"0  c #7D4824",
"q  c #665025",
"w  c #6B5224",
"e  c #705626",
"r  c #83451F",
"t  c #88471F",
"y  c #87491F",
"u  c #8E4B1F",
"i  c #914B1F",
"p  c #9C4F1E",
"a  c #8D501F",
"s  c #95501D",
"d  c #9E501F",
"f  c #A4561D",
"g  c #AB561E",
"h  c #A3591C",
"j  c #AB5C1C",
"k  c #AC611E",
"l  c #A46C1F",
"z  c #A86E1F",
"x  c #B3631A",
"c  c #BB661A",
"v  c #B56C1E",
"b  c #BC6B1B",
"n  c #BE741F",
"m  c #824421",
"M  c #894621",
"N  c #8D4921",
"B  c #944B21",
"V  c #984D20",
"C  c #815520",
"Z  c #8E5320",
"A  c #905321",
"S  c #985721",
"D  c #965B24",
"F  c #9C5C22",
"G  c #955E28",
"H  c #A05320",
"J  c #A25F25",
"K  c #95732B",
"L  c #A46222",
"P  c #A06827",
"I  c #AE7227",
"U  c #AE752A",
"Y  c #BD7520",
"T  c #B6772A",
"R  c #C46D19",
"E  c #C3751E",
"W  c #C67B1E",
"Q  c #CC7C1D",
"!  c #C47B22",
"~  c #CE841E",
"^  c #D5841C",
"/  c #DA8C1E",
"(  c #E4951E",
")  c #C48221",
"_  c #CD8524",
"`  c #CD8926",
"'  c #C58229",
"]  c #C98728",
"[  c #C78A2B",
"{  c #C98929",
"}  c #D58B24",
"|  c #D98E21",
" . c #D5932C",
".. c #DD9B2B",
"X. c #D19830",
"o. c #D69B30",
"O. c #E69C23",
"+. c #E89C23",
"@. c #D8A030",
"#. c #D8A031",
"$. c #E1A42F",
"%. c #E4A62F",
"&. c #E7A62E",
"*. c #E7A72F",
"=. c #E3A32D",
"-. c #E9A92E",
";. c #ECAB2C",
":. c #EDAE2F",
">. c #EEAF2F",
",. c #EFAF2F",
"<. c #EEAD2D",
"1. c #F0B02F",
"2. c #F1B22F",
"3. c #F3B32E",
"4. c #E6AC31",
"5. c #EBB032",
"6. c #F1B734",
"7. c #F2B734",
"8. c #F4B833",
"9. c #F4B933",
"0. c #F5BA32",
"q. c #F3B934",
"w. c #F3BA35",
"e. c #F7BD34",
"r. c #F5BB35",
"t. c None",
"y. c black",
/* pixels */
"t.t.t.t.t.t.t.t.t.t.t.t.t.t.t.t.t.t.t.t.t.t.t.t.t.t.t.t.t.t.t.t.",
"t.t.t.t.t.t.t.t.t.t.t.t.t.t.t.t.t.t.t.t.t.t.t.t.t.t.t.t.t.t.t.t.",
"t.t.t.t.t.t.t.t.t.t.t.t.t.t.t.t.t.t.t.t.t.t.t.t.t.t.t.t.t.t.t.t.",
"t.t.t.t.t.t.t.t.t.t.t.t.t.t.t.t.t.t.t.t.t.t.t.t.t.t.t.t.t.t.t.t.",
"t.t.t.t.t.t.t.t.t.t.t.t.t.t.t.t.t.t.t.t.t.t.t.t.t.t.t.t.t.t.t.t.",
"t.t.t.t.t.t.t.t.t.t.t.t.t.t.t.t.t.t.t.t.t.t.t.t.t.t.t.t.t.t.t.t.",
"t.t.t.t.t.t.t.t.t.t.t.t.t.t.t.t.t.t.t.t.t.t.t.t.t.t.t.t.t.t.t.t.",
"t.t.t.t.t.t.t.t.$ + @ 7 = O + + + + + + O 5 q * t.t.t.t.t.t.t.t.",
"t.t.t.t.t.t.t.$ 3 R Q -.o.L d f f g g g B T 4.K & t.t.t.t.t.t.t.",
"t.t.t.t.t.t.% 3 b j j ! 1.X.D p p p p p p d ' 5.K 4 t.t.t.t.t.t.",
"t.t.t.t.t.t.@ b h , , u ` e. .g g g g g g g H ..w.w t.t.t.t.t.t.",
"t.t.t.t.t.t.@ j > , , > P 1.{ M M M t M M M N  .1.q t.t.t.t.t.t.",
"t.t.t.t.t.t.@ h - ; : ; D ( Y > > 0 G G G 0 > ! ( 1 t.t.t.t.t.t.",
"t.t.t.t.t.t.@ k r u i t L +._ J A I <.,.<.U F } O.2 t.t.t.t.t.t.",
"t.t.t.t.t.t.@ R R R E R } 8.8.7...^ | ) | ;.7.8.w.w t.t.t.t.t.t.",
"t.t.t.t.t.t.@ c x x x x ! &.$.@.{ Q P X z ..@.$.&.7 t.t.t.t.t.t.",
"t.t.t.t.t.t.+ p ; ; : ; y c h 8 > F l   z L 8 k R @ t.t.t.t.t.t.",
"t.t.t.t.t.t.@ h ; , , > a ^ v M , F ~ a ~ k M E ^ < t.t.t.t.t.t.",
"t.t.t.t.t.t.@ h - : : - Z ^ v , > A W n W S , n / < t.t.t.t.t.t.",
"t.t.t.t.t.t.@ h ; > > ; Z ^ v m m 9 m m m m m E / < t.t.t.t.t.t.",
"t.t.t.t.t.t.@ h > , , > Z ^ n B B B B B B B V W / < t.t.t.t.t.t.",
"t.t.t.t.t.t.@ h - ; ; - A / v , , , , , , , 9 Y / < t.t.t.t.t.t.",
"t.t.t.t.t.t.@ c i > : r ! <.] M M M M M M M 9 [ <.7 t.t.t.t.t.t.",
"t.t.t.t.t.t.@ R c j j x | e.=.E E E E E E E n $.w.q t.t.t.t.t.t.",
"t.t.t.t.t.t.  @ @ @ # @ 6 e w 1 1 1 1 1 1 1 1 w w o t.t.t.t.t.t.",
"t.t.t.t.t.t.t.t.t.t.t.t.t.t.t.t.t.t.t.t.t.t.t.t.t.t.t.t.t.t.t.t.",
"t.t.t.t.t.t.t.t.t.t.t.t.t.t.t.t.t.t.t.t.t.t.t.t.t.t.t.t.t.t.t.t.",
"t.t.t.t.t.t.t.t.t.t.t.t.t.t.t.t.t.t.t.t.t.t.t.t.t.t.t.t.t.t.t.t.",
"t.t.t.t.t.t.t.t.t.t.t.t.t.t.t.t.t.t.t.t.t.t.t.t.t.t.t.t.t.t.t.t.",
"t.t.t.t.t.t.t.t.t.t.t.t.t.t.t.t.t.t.t.t.t.t.t.t.t.t.t.t.t.t.t.t.",
"t.t.t.t.t.t.t.t.t.t.t.t.t.t.t.t.t.t.t.t.t.t.t.t.t.t.t.t.t.t.t.t.",
"t.t.t.t.t.t.t.t.t.t.t.t.t.t.t.t.t.t.t.t.t.t.t.t.t.t.t.t.t.t.t.t."
};
