/* XPM */
static const char *exit_32x32[] = {
/* columns rows colors chars-per-pixel */
"32 32 229 2 ",
"   c #1C1A19",
".  c #1C1B19",
"X  c #1D1B19",
"o  c #1E1C1A",
"O  c #1F1C1B",
"+  c #231E1C",
"@  c #221F1E",
"#  c #241F1C",
"$  c #272019",
"%  c #27201A",
"&  c #24201E",
"*  c #24201F",
"=  c #29221E",
"-  c #2B231E",
";  c #30251D",
":  c #33261D",
">  c #33271D",
",  c #34271C",
"<  c #34271D",
"1  c #35271D",
"2  c #36281D",
"3  c #37281D",
"4  c #392818",
"5  c #262220",
"6  c #262221",
"7  c #272321",
"8  c #272322",
"9  c #282422",
"0  c #282423",
"q  c #292423",
"w  c #282523",
"e  c #292523",
"r  c #292622",
"t  c #2A2624",
"y  c #2B2624",
"u  c #2A2724",
"i  c #2B2724",
"p  c #2A2725",
"a  c #2C2826",
"s  c #2D2927",
"d  c #2F2B28",
"f  c #312D2A",
"g  c #322E2C",
"h  c #332E2C",
"j  c #332F2D",
"k  c #342F2D",
"l  c #35302C",
"z  c #34302E",
"x  c #36312E",
"c  c #37322F",
"v  c #38332F",
"b  c #363230",
"n  c #373330",
"m  c #373331",
"M  c #383331",
"N  c #383431",
"B  c #393431",
"V  c #3A3531",
"C  c #383432",
"Z  c #393533",
"A  c #3B3632",
"S  c #3B3633",
"D  c #3D3833",
"F  c #3D3834",
"G  c #3F3A35",
"H  c #3C3836",
"J  c #3F3A36",
"K  c #4A2F1A",
"L  c #4F3219",
"P  c #4D331B",
"I  c #55361A",
"U  c #413831",
"Y  c #423931",
"T  c #433931",
"R  c #433932",
"E  c #433A32",
"W  c #403B37",
"Q  c #413B37",
"!  c #423D38",
"~  c #423D39",
"^  c #433D39",
"/  c #433E3A",
"(  c #443E39",
")  c #453E3A",
"_  c #453F3A",
"`  c #47413C",
"'  c #47423D",
"]  c #48433D",
"[  c #49433E",
"{  c #49443F",
"}  c #4A443E",
"|  c #4B453F",
" . c #4B4540",
".. c #4D4742",
"X. c #4E4842",
"o. c #4F4944",
"O. c #4F4A44",
"+. c #514943",
"@. c #504A44",
"#. c #514A44",
"$. c #504A45",
"%. c #514A45",
"&. c #514B45",
"*. c #514C45",
"=. c #524C45",
"-. c #524C46",
";. c #534C46",
":. c #534D47",
">. c #544D46",
",. c #544D47",
"<. c #544E47",
"1. c #544E48",
"2. c #554F48",
"3. c #564F48",
"4. c #565049",
"5. c #57514A",
"6. c #57514B",
"7. c #58514A",
"8. c #59514A",
"9. c #5A534C",
"0. c #58534E",
"q. c #5B544C",
"w. c #5C544D",
"e. c #5C554E",
"r. c #5D564E",
"t. c #5D564F",
"y. c #5F5851",
"u. c #5C5852",
"i. c #5D5852",
"p. c #605951",
"a. c #615952",
"s. c #615A52",
"d. c #625A52",
"f. c #645D54",
"g. c #665E56",
"h. c #665F57",
"j. c #676057",
"k. c #676058",
"l. c #67635D",
"z. c #686158",
"x. c #696259",
"c. c #69625A",
"v. c #6A625A",
"b. c #6A635A",
"n. c #6B635B",
"m. c #6A645B",
"M. c #6B645B",
"N. c #6C645C",
"B. c #6C655C",
"V. c #6D655C",
"C. c #6D665D",
"Z. c #6E675E",
"A. c #6F675E",
"S. c #6F685E",
"D. c #6F685F",
"F. c #70685F",
"G. c #70695F",
"H. c #706960",
"J. c #706961",
"K. c #716A60",
"L. c #716A61",
"P. c #726B61",
"I. c #726B62",
"U. c #736B62",
"Y. c #736C63",
"T. c #746C63",
"R. c #746D63",
"E. c #756E65",
"W. c #767068",
"Q. c #777068",
"!. c #787168",
"~. c #7D766D",
"^. c #824917",
"/. c #834917",
"(. c #824C18",
"). c #854C18",
"_. c #8A5218",
"`. c #925517",
"'. c #9B5715",
"]. c #9B5516",
"[. c #995616",
"{. c #9A5616",
"}. c #9B5716",
"|. c #9E5515",
" X c #9D5615",
".X c #9C5616",
"XX c #9C5816",
"oX c #975918",
"OX c #985918",
"+X c #985A19",
"@X c #995B19",
"#X c #9A5B18",
"$X c #9F5F19",
"%X c #A05715",
"&X c #A65A15",
"*X c #A75B15",
"=X c #A55B16",
"-X c #A35E16",
";X c #A55C15",
":X c #A65C15",
">X c #A45E16",
",X c #A45F16",
"<X c #A45F17",
"1X c #A65F16",
"2X c #AA5F15",
"3X c #AC5F15",
"4X c #AE6215",
"5X c #B26516",
"6X c #B56815",
"7X c #B76915",
"8X c #B76A15",
"9X c #B46816",
"0X c #B56816",
"qX c #B56916",
"wX c #B66816",
"eX c #B66916",
"rX c #B86A15",
"tX c #B86B15",
"yX c #B86916",
"uX c #B86A16",
"iX c #B86B16",
"pX c #B96B16",
"aX c #BA6C15",
"sX c #BA6C16",
"dX c #BD6E16",
"fX c #BE7016",
"gX c #BF7016",
"hX c #C17116",
"jX c None",
/* pixels */
"jXjXjXjXjXjXjXjXjXjXjXjXjXjXjXjXjXjXjXjXjXjXjXjXjXjXjXjXjXjXjXjX",
"jXjXjXjXjXjXjXjXjXjXjXjXjXjXjXjXjXjXjXjXjXjXjXjXjXjXjXjXjXjXjXjX",
"jXjXjXjXjXjXjXjXjXjXjXjXjXjXjXjXjXjXjXjXjXjXjXjXjXjXjXjXjXjXjXjX",
"jXjXjXjXjXjXjXjXjXjXjXjXjXjXjXjXjXjXjXjXjXjXjXjXjXjXjXjXjXjXjXjX",
"jXjXjXjXjXjXjXjXjXjXjXjXjXa y y y y a jXjXjXjXjXjXjXjXjXjXjXjXjX",
"jXjXjXjXjXjXjXjXjXjXjXjXy G X.O.O.;.y.m jXjXjXjXjXjXjXjXjXjXjXjX",
"jXjXjXjXjXjXjXjXjXjXy ..@.;.G.P.P.Y.!.@.9.d jXjXjXjXjXjXjXjXjXjX",
"jXjXjXjXjXjXjXjXjX[ 4.B.G.d.d.G.P.S.d.k.W.l.9.jXjXjXjXjXjXjXjXjX",
"jXjXjXjXjXjXjXjX{ c.P.P.B.3.B G Q Q { c.T.~.P.` jXjXjXjXjXjXjXjX",
"jXjXjXjXjXjXjX7 <.P.P.m.~ y O     O q ~ m.P.P.;.7 jXjXjXjXjXjXjX",
"jXjXjXjXjXjXjXD <.c.B.~ &   $ 4 4 #   * ~ B.c.<.G jXjXjXjXjXjXjX",
"jXjXjXjXjXjX7 O.c.t.Q 7 # L /. X}./.K @ 7 Q t.c.@.7 jXjXjXjXjXjX",
"jXjXjXjXjXjXq 3.P.c.z @ I ;X2X;X X%X}.L @ z c.P.3.q jXjXjXjXjXjX",
"jXjXjXjXjXjXq ;.G.N.B - `.dX8X8X4X*X*X).- B B.G.;.q jXjXjXjXjXjX",
"jXjXjXjXjXjXq ` t.9.z 2 -XfX8XrX8X8X*X}.: g 8.t.[ q jXjXjXjXjXjX",
"jXjXjXjXjXjXq @.B.W.G 2 ;XfX8XrX8XrX3X}.< m c.E.y.q jXjXjXjXjXjX",
"jXjXjXjXjXjXq 3.P.P.B 2 ;XfX8XrX8XrX5X}.: M B.T.4.q jXjXjXjXjXjX",
"jXjXjXjXjXjXq ;.B.c.M 2 ;XfX8XrX8XrX8X}.: m c.B.;.q jXjXjXjXjXjX",
"jXjXjXjXjXjXq ` t.8.k 2 ;XfX8XrX8XrX8X}.< g 8.t.` q jXjXjXjXjXjX",
"jXjXjXjXjXjXq ;.S.c.B 2 ;XfX8XrX8XrX8X}.< M m.B.;.q jXjXjXjXjXjX",
"jXjXjXjXjXjXq @.P.B.B 2 ;XfX8XrX8XrX8XXX< m c.P.3.q jXjXjXjXjXjX",
"jXjXjXjXjXjXq _ h.c.m 2 ;XfX8XrX8XrX8X}.< g t.B.;.q jXjXjXjXjXjX",
"jXjXjXjXjXjXq ;.h.<.g 2 ;XhXrXrX8XsXrXXX< B h.q.~ q jXjXjXjXjXjX",
"jXjXjXjXjXjX7  .d.{ a : _.$X#X#XoX#X#X(.: z y.4.B 7 jXjXjXjXjXjX",
"jXjXjXjXjXjXa z v B B B Y Y Y Y Y Y Y Y B B G G G f jXjXjXjXjXjX",
"jXjXjXjXjXjXB +.@.d.j.h.h.h.h.h.h.h.h.h.h.h.h.h.k.[ jXjXjXjXjXjX",
"jXjXjXjXjXjXz _ _ _ _ _ _ _ _ _ _ _ _ _ _ _ _ _ _ z jXjXjXjXjXjX",
"jXjXjXjXjXjX7 q q q q q q q q q q q q q q q q q 8 7 jXjXjXjXjXjX",
"jXjXjXjXjXjXjXjXjXjXjXjXjXjXjXjXjXjXjXjXjXjXjXjXjXjXjXjXjXjXjXjX",
"jXjXjXjXjXjXjXjXjXjXjXjXjXjXjXjXjXjXjXjXjXjXjXjXjXjXjXjXjXjXjXjX",
"jXjXjXjXjXjXjXjXjXjXjXjXjXjXjXjXjXjXjXjXjXjXjXjXjXjXjXjXjXjXjXjX",
"jXjXjXjXjXjXjXjXjXjXjXjXjXjXjXjXjXjXjXjXjXjXjXjXjXjXjXjXjXjXjXjX"
};
