/* XPM */
static const char *floor_32x32[] = {
/* columns rows colors chars-per-pixel */
"32 32 126 2 ",
"   c #0F0E0E",
".  c #100F0F",
"X  c #110F0F",
"o  c #11100F",
"O  c #12100F",
"+  c #111010",
"@  c #111110",
"#  c #121010",
"$  c #121110",
"%  c #131111",
"&  c #131212",
"*  c #141212",
"=  c #151212",
"-  c #141312",
";  c #151312",
":  c #141313",
">  c #151313",
",  c #151413",
"<  c #161413",
"1  c #151414",
"2  c #161414",
"3  c #171414",
"4  c #161514",
"5  c #171514",
"6  c #161515",
"7  c #171515",
"8  c #171615",
"9  c #171616",
"0  c #181514",
"q  c #181515",
"w  c #181615",
"e  c #191615",
"r  c #181616",
"t  c #191616",
"y  c #181716",
"u  c #191716",
"i  c #181717",
"p  c #191717",
"a  c #1A1716",
"s  c #1A1717",
"d  c #181817",
"f  c #191817",
"g  c #1A1817",
"h  c #1B1817",
"j  c #191818",
"k  c #191918",
"l  c #1A1818",
"z  c #1B1818",
"x  c #1A1918",
"c  c #1B1918",
"v  c #1A1919",
"b  c #1B1919",
"n  c #1A1A19",
"m  c #1B1A19",
"M  c #1A1A1A",
"N  c #1B1A1A",
"B  c #1B1B1B",
"V  c #1C1818",
"C  c #1C1919",
"Z  c #1D1919",
"A  c #1C1A19",
"S  c #1D1A19",
"D  c #1C1A1A",
"F  c #1D1A1A",
"G  c #1C1B1A",
"H  c #1D1B1A",
"J  c #1C1B1B",
"K  c #1D1B1B",
"L  c #1E1B1A",
"P  c #1E1B1B",
"I  c #1D1C1B",
"U  c #1E1C1B",
"Y  c #1C1C1C",
"T  c #1D1C1C",
"R  c #1D1D1C",
"E  c #1D1D1D",
"W  c #1E1C1C",
"Q  c #1F1C1C",
"!  c #1E1D1C",
"~  c #1F1D1C",
"^  c #1E1D1D",
"/  c #1F1D1D",
"(  c #1F1E1D",
")  c #1F1D1E",
"_  c #1E1E1E",
"`  c #1F1E1E",
"'  c #1F1F1E",
"]  c #1F1F1F",
"[  c #201D1D",
"{  c #211D1D",
"}  c #201E1D",
"|  c #211E1D",
" . c #201E1E",
".. c #211E1E",
"X. c #201F1E",
"o. c #211F1E",
"O. c #201F1F",
"+. c #211F1F",
"@. c #221F1F",
"#. c #231F1F",
"$. c #21201F",
"%. c #22201F",
"&. c #23201F",
"*. c #201F20",
"=. c #202020",
"-. c #212020",
";. c #212021",
":. c #212121",
">. c #222020",
",. c #232020",
"<. c #222120",
"1. c #232120",
"2. c #222121",
"3. c #232121",
"4. c #232221",
"5. c #222222",
"6. c #232222",
"7. c #242020",
"8. c #242121",
"9. c #242221",
"0. c #242222",
"q. c #252222",
"w. c #242323",
"e. c #252323",
"r. c #262423",
"t. c #272424",
/* pixels */
"G G 1 >. .G 1 q. .G 1 q. .1  .q.1 E q.>.G 1 q.G j q. .1  .>.>.y ",
"E >.j >.>.>.d >.>.>.y >.>.j >.q.G E >.>. .j >. .G >.q.j >.>.>. .",
"G I y  .E E y E E E 1  .G y E E d E E E E y E j j  .E y E E E G ",
"y y y j 1 @ y @ j y @ > j y y @ 1 y y j @ 1 E G j > E G , j  .@ ",
">.>.>.>. .1 q.y  .>. .j >.>.>.y >.>.>.q.G I q.>.q.y >.q.G E t.y ",
">.>.>.>. .1 >.j E >. .G >.>.>.y  .>.>.>.G E >.>.>.j  .>.E E >.1 ",
"> 1 1 , @   j y G y y G G y G y G y G j > > G j 1 X j y @ 1 y   ",
"j >.>.>. .1 >.q.q.G E q.q.y >.q.>.y >.>.>.y >.>. .1 >.q.1 >.q.G ",
"G >.>.>.>.j >.>.>.G E >.q.G >.>.>.j >.>.q.j >.>.>.y >.>.j >.>. .",
"j G G E G 1 E  .E 1 G E G y j j j , G  .I y E j G 1 j j 1 G j 1 ",
"E E E q.>. .y >.q.y E >.%. .%.%.>. .1 q.q.1 q.y  .q.1  .>. . .y ",
" .>.E >.>.q.G >.q.I E >.>.>.>.>.>.q.j >.>.d >.j >.>.j >.>.>.>.E ",
"j j G E G G d G E y G E E E E j G G 1 E j 1 E y G E y G j G j 1 ",
"G G G G y @ G > E E y y  .E G > G E G E , j %. .G 1 E E 1 G  .@ ",
">.>.>.>. .1 q.j >.q. .I >.>.q.j >.>.>.q.I E >.>.q.j >.>.E E e.1 ",
" . .E E G 1  .j E >.E E >. .>.j  . . .E G E %. . .j  . .j j E @ ",
"j y 1 G j 1 1 G E j 1  .I j  .G y I  .E y y  .y y G G > j G j X ",
"E  .y >.q.q.j >.>.%.d q.q.j >.q.G  .q.q. .j q. .G >.q.y >.q.q.E ",
"E  .j >.>. .G >.>.>.j >. .G >.>.E  .>.>. .j >.E E >.>.j  .>.>.G ",
"y j y G 1 j y j G y 1 G 1 j G j j G G j 1 d G y d G y 1 1 y j > ",
"E >.>.>.1 >. .j q. .d q.d >.q.j >.q.q.>.j  .>.q.q.>.>.q. .G q.G ",
"E >.>.>.j >. .G >. .j >.j >.>.G >.>.>.>.E E >.>.>.>.>.>.>.E >. .",
"E  .E j > G E E E y G E 1 E >.I I G E E y G  .E j j  .G j E E 1 ",
">.q.q.>.G y >.>.q.y  .>. .j >.q. .j >.q. .j q.q. .y q. .y >.q.> ",
">.>.>.>. .j >.>.>.G E >. .j >.>. .j >.>. .j >.>. .j >. .j >.q.1 ",
" . .G E E d E  .E y E G G j j j y G >.E j j  .G j j E y j E E @ ",
"E q.G E q. .j >.E j  .y >.>. .%.1 >.q.q.G G q.G j q.>.1  .>.q.y ",
"E >. .E >.>.E >. .j >.j >.>.>.q.j  .>.>. .G >.I G >.>.j >.>.>.E ",
"E >. .E E E G I j j E j E G j  .j %.E E E j E G j E E j E G E j ",
"E >.q.q.q.>.q. .1 q.q.q.>. .y  .q.q.G j t.G G q.>.1 q.q.>.j >.G ",
"E >.>.>.>.>.>.>.j >.>.>.>.>.I E >.>.E j q.E E >.>.j >.>.>.E  .E ",
"I E E G G j j j y  .E E E E j E E E j y E j G  .E 1 E E E j E j "
};
