/* XPM */
static const char *player_32x32[] = {
/* columns rows colors chars-per-pixel */
"32 32 141 2 ",
"   c #17161B",
".  c #19171C",
"X  c #1D181C",
"o  c #241B1D",
"O  c #2B1E1D",
"+  c #331F1B",
"@  c #2D201E",
"#  c #34211D",
"$  c #151920",
"%  c #1C1E25",
"&  c #1E2027",
"*  c #1D232B",
"=  c #1F2831",
"-  c #1D2D3B",
";  c #2C2424",
":  c #232329",
">  c #342522",
",  c #3B2B25",
"<  c #392F2F",
"1  c #222B34",
"2  c #2E2F35",
"3  c #232E39",
"4  c #25323E",
"5  c #2C333B",
"6  c #303237",
"7  c #3D3331",
"8  c #45261D",
"9  c #4A261B",
"0  c #4B281F",
"q  c #512D1F",
"w  c #5C2E1E",
"e  c #5E321F",
"r  c #61311F",
"t  c #422C23",
"y  c #4C2D21",
"u  c #44332B",
"i  c #4A3228",
"p  c #543324",
"a  c #5A3322",
"s  c #533A2B",
"d  c #423432",
"f  c #653421",
"g  c #6A3421",
"h  c #653924",
"j  c #6B3B24",
"k  c #733724",
"l  c #723C24",
"z  c #7B3E26",
"x  c #78441F",
"c  c #4E443F",
"v  c #544132",
"b  c #594033",
"n  c #604529",
"m  c #6B432E",
"M  c #664D2F",
"N  c #7C4226",
"B  c #674431",
"V  c #684837",
"C  c #664939",
"Z  c #684B38",
"A  c #704F3C",
"S  c #6A503D",
"D  c #77503A",
"F  c #223441",
"G  c #293641",
"H  c #273845",
"J  c #273A49",
"K  c #2B3E4C",
"L  c #2E414F",
"P  c #32424E",
"I  c #264255",
"U  c #2B4353",
"Y  c #2E4758",
"T  c #2F495A",
"R  c #334856",
"E  c #354D5D",
"W  c #37505F",
"Q  c #2E4D60",
"!  c #324F61",
"~  c #325266",
"^  c #3A5767",
"/  c #35566B",
"(  c #35586E",
")  c #3B5869",
"_  c #3B5D72",
"`  c #3C6177",
"'  c #3F657C",
"]  c #5F4C43",
"[  c #5D5450",
"{  c #426275",
"}  c #42667B",
"|  c #40687F",
" . c #814627",
".. c #8C4E2B",
"X. c #90512C",
"o. c #95582D",
"O. c #805337",
"+. c #825438",
"@. c #8B5739",
"#. c #905232",
"$. c #9E5B37",
"%. c #9C623E",
"&. c #BB732C",
"*. c #AF6F34",
"=. c #8F6145",
"-. c #8B674A",
";. c #906246",
":. c #A36742",
">. c #A36D47",
",. c #B26D44",
"<. c #A6714B",
"1. c #B37046",
"2. c #A17652",
"3. c #B47A50",
"4. c #CE7D4C",
"5. c #C37D50",
"6. c #BF8155",
"7. c #BF8659",
"8. c #C88152",
"9. c #C38658",
"0. c #CB8A5C",
"q. c #DD905A",
"w. c #D69561",
"e. c #D59965",
"r. c #DD9B65",
"t. c #DB9E69",
"y. c #E39863",
"u. c #E5A26A",
"i. c #EBA66D",
"p. c #F1A66B",
"a. c #F2A96F",
"s. c #EDAA71",
"d. c #F3AD72",
"f. c #F6B174",
"g. c #426A81",
"h. c #497086",
"j. c #4A758C",
"k. c #4E7A92",
"l. c #507E95",
"z. c #518097",
"x. c #161514",
/* pixels */
"x.x.x.x.x.x.x.x.x.x.x.x.x.x.x.x.x.x.x.x.x.x.x.x.x.x.x.x.x.x.x.x.",
"x.x.x.x.x.x.x.x.x.x.x.x.x.x.      x.x.x.x.x.x.x.x.x.x.x.x.x.x.x.",
"x.x.x.x.x.x.x.x.x.x.x.x.% K R ^ ) K x.x.x.x.x.x.x.x.x.x.x.x.x.x.",
"x.x.x.x.x.x.x.x.x.x.x.% U ` j.l.z.h.K x.x.x.x.x.x.x.x.x.x.x.x.x.",
"x.x.x.x.x.x.x.x.x.x.% U _ j.l.l.l.l.h.K x.x.x.x.x.x.x.x.x.x.x.x.",
"x.x.x.x.x.x.x.x.x.x.H _ _ g.j.j.j.j.j.} 1 x.x.x.x.x.x.x.x.x.x.x.",
"x.x.x.x.x.x.x.x.x.* Y ( ~ _ | g.g.g.g.' L x.x.x.x.x.x.x.x.x.x.x.",
"x.x.x.x.x.x.x.x.x.4 / Q J R ~ E E E E W R & x.x.x.x.x.x.x.x.x.x.",
"x.x.x.x.x.x.x.x.x.& 3 3 > # # p +.+.O.y X x.x.x.x.x.  . x.x.x.x.",
"x.x.x.x.x.x.x.x.  O 8 O @.>.s 9.p.<.3.1.> x.x.x.x.  x.. x.x.x.x.",
"x.x.x.x.x.x.x.x.x.V 5.B 7.e.S i.f.-.2.q.u x.x.x.x.. x.. x.x.x.x.",
"x.x.x.x.x.x.x.x.x.Z 0.8.u.s.t.i.r.e.u.5.t x.x.x.x.. x.. x.x.x.x.",
"x.x.x.x.x.x.x.x.x.x.; +.y.d.f.w.%.0.a.V x.x.x.x.x.. x.. x.x.x.x.",
"x.x.x.x.x.x.x.x.x.x.* : O.y.a.a.i.a.6.t x.x.x.x.x.. x.. x.x.x.x.",
"x.x.x.x.x.x.x.x.x.= T U 5 D =.=.;.;.c K P x.x.x.x.. x.. x.x.x.x.",
"x.x.x.x.x.x.x.X X : G ! / U F F F J / g.h.E x.x.x.. x.. x.x.x.x.",
"x.x.x.x.x.x.@ a h f f 7 G ~ ( ( ( ' j.' h.{ % x.x.. x.. x.x.x.x.",
"x.x.x.x.x.a j f f f f h j 6 / ' j.k.k.( 4 3 % x.o @ x.@ X x.x.x.",
"x.x.x.x.O h g g g g g f l , ! j.l.l.k.! & K P , p j l j # x.x.x.",
"x.x.x.x.a f g k z z k g f j 2 _ _ _ _ 3 % I [ 4.+.i s , x.x.x.x.",
"x.x.x.x.a f g j ..X.N g f j O , n M s # % - ] 4.#.,.y.C x.x.x.x.",
"x.x.x.x.a f f r N  .j f f j # x &.*.o.e o $ d m a $.:.s x.x.x.x.",
"x.x.x.x.a f f f f g f g r j ; u v d d < % x.x.x.# t # x.x.x.x.x.",
"x.x.x.x.# a r g f f g f j t J ~ _ _ _ _ U % x.x.. t y x.x.x.x.x.",
"x.x.x.x.x.y f r r r r j l ; U / _ _ _ _ ! & x.x.x.x.x.x.x.x.x.x.",
"x.x.x.x.x.o # h j j j t O o % & & : : : & . x.x.x.x.x.x.x.x.x.x.",
"x.x.x.x.x.x.x.o o o O # 8 8 X x.x.O 9 9 o x.x.x.x.x.x.x.x.x.x.x.",
"x.x.x.x.x.x.x.x.x.x.# w w 0 o x.x.# w w # x.x.x.x.x.x.x.x.x.x.x.",
"x.x.x.x.x.x.x.x.x.o q j f O x.x.x.# w g j y x.x.x.x.x.x.x.x.x.x.",
"x.x.x.x.x.x.x.x.x.+ e j f O x.x.x.# w g j a o x.x.x.x.x.x.x.x.x.",
"x.x.x.x.x.x.x.x.x.x.x.x.x.x.x.x.x.x.x.x.x.x.x.x.x.x.x.x.x.x.x.x.",
"x.x.x.x.x.x.x.x.x.x.x.x.x.x.x.x.x.x.x.x.x.x.x.x.x.x.x.x.x.x.x.x."
};
