/* XPM */
static const char *wall_32x32[] = {
/* columns rows colors chars-per-pixel */
"32 32 56 1 ",
"  c #393436",
". c #393536",
"X c #393537",
"o c #3A3437",
"O c #3A3537",
"+ c #3A3637",
"@ c #3A3638",
"# c #3B3638",
"$ c #3A3738",
"% c #3B3738",
"& c #3B3639",
"* c #3A3739",
"= c #3B3739",
"- c #3C3739",
"; c #3B3839",
": c #3B383A",
"> c #3C3839",
", c #3C383A",
"< c #3D383A",
"1 c #3C393A",
"2 c #3D393A",
"3 c #3C393B",
"4 c #3D393B",
"5 c #3E393B",
"6 c #3D3A3B",
"7 c #3E3A3B",
"8 c #3D3A3C",
"9 c #3D3B3C",
"0 c #3E3A3C",
"q c #3F3A3C",
"w c #3E3B3C",
"e c #3F3B3C",
"r c #3E3B3D",
"t c #3F3B3D",
"y c #3E3C3D",
"u c #3F3C3D",
"i c #3F3D3D",
"p c #3F3C3E",
"a c #3F3D3E",
"s c #403C3D",
"d c #403C3E",
"f c #403D3E",
"g c #413D3E",
"h c #403D3F",
"j c #413D3F",
"k c #403E3E",
"l c #403E3F",
"z c #413E3F",
"x c #413E40",
"c c #423E40",
"v c #423F40",
"b c #433F41",
"n c #424041",
"m c #434041",
"M c #444142",
"N c #444243",
/* pixels */
"Nw5lwlllnllwylwyy5xn5ylllw5&55yl",
"5-X- &&55-&X5wX&&X55X55w5&&XXXXy",
"w5&&XX&5555Xw5&55-55&5555&&55&&5",
"ww;5;yy55555&5w;55&ww;5y&5;5w555",
"55555l5555&&555&w5&55Xwl&555&555",
"55;&&;5w555&lyX5555555wx55w55&5x",
"l&XXX&-wlwwXw5&55Xyw&55ww55X5X5w",
"wX&5-&X5w5w&&5&&5X5wX55X5XXXX&&5",
"w55y5555y55yw5555w5;w55w5yw555yy",
"&;55&55&l5X55&5w&555&&55&5l&5555",
"l&&&5w55ww5555555&yy&&5555;&5555",
"y5Xw&555w55&wwX55XwwX5wlw&&XXX&l",
"w55&X&&w5ww&lw&ww5w5;wwl5555w&&l",
"ly5w5yywywyy5wywywwyywwyw55wlwwy",
"55;5&l5&55&&&;5X5-X55X5wX5;&55&&",
"5555&55555X&ww&&55555&wl55w5&&5l",
"y&XXX&&ww55XlwX55&w5&55y555&wX5l",
"l&&w55;5lww55w-55XylXw5&w&&X&-55",
"y5wlw55wlylyyyw5wwwwyyywyywwwwyl",
"X&;5&&&Xw5X55X-5X5&&&&&;&5yX5&5;",
"w&5&-555ww&55555&&w5&X5555555555",
"l-Xw&555y55;5w&55XwlX55ww&&XX&5w",
"w5&-X&-w555XlyX55-w5&wwl555-5&&x",
"lw5555wyyylwywwwlwyywyyyw55wlwwy",
"55&&Xw5&;&&5X&5X5&X55X&wX&&&5;&&",
"55555w5555X&55&&55-55Xwl&55-&55w",
"w5&XX&-w555XlwX55&w5&5wl55555X5x",
"l&X&&&5wlww&w5&55XyyX555w55X5&5w",
"y&5yw5;wyyl5wy55w5wy5yw;w555555y",
"5;5w;;;&y;&w5&55&w;&5;;5;ww&5&w5",
"5&5&&55&wwX55&5w&&55&X55&5y5555;",
"n555wywyllw5www55;ll55wwyww5wwww"
};
